<svg width="79" height="80" viewBox="0 0 79 80" fill="none" xmlns="http://www.w3.org/2000/svg">
<g filter="url(#filter0_d_301_562)">
<path d="M11.7261 26.9479C15.3688 22.6688 19.3636 18.5792 23.7782 15.099C26.8522 12.675 27.9084 12.5532 29.6011 12.0927C30.0615 11.9709 30.4678 11.6865 30.8605 11.4021C47.3407 -0.23018 68.3438 8.0167 72.4063 28.5459C75.1011 42.1688 68.1542 55.6969 56.2105 61.2219C56.0209 61.3167 55.7365 61.3438 55.6417 61.4927C53.2719 65.2032 48.4511 66.6386 45.5126 67.3698C44.9167 67.5865 44.4563 68.2094 43.9147 68.6157C43.4949 68.9271 43.0751 69.2657 42.6011 69.4823C27.0688 76.6865 10.3719 67.0448 6.71569 51.0927C6.20111 48.8448 3.93965 35.2761 11.7261 26.9479ZM44.0772 60.3552C49.6157 60.3282 53.2313 59.4209 56.4678 57.6469C72.0407 49.1021 74.3699 25.8917 60.6657 14.5573C52.8115 8.07086 42.7636 6.97399 33.9344 13.1896C23.4397 20.5698 19.6344 35.6959 25.5115 47.125C29.7365 55.3448 36.4397 59.8813 44.0772 60.3552ZM49.3719 63.8625C50.049 63.6188 50.1438 63.4427 50.0355 63.3615C50.0355 63.3615 49.7511 63.3615 49.2772 63.375C37.0897 64.2959 27.9219 59.448 22.4917 48.5198C17.1834 37.849 18.4699 27.3677 24.7397 17.3334C24.2386 17.5771 23.8324 17.875 23.4667 18.2136C15.0167 25.8646 12.5251 38.824 17.4001 49.9011C21.8959 60.125 31.3344 66.1917 41.9511 65.4334C44.4428 65.2573 46.8938 64.4042 49.3719 63.8625ZM13.5813 28.7354C13.5949 28.3427 13.2292 28.8302 13.1751 28.8979C12.9855 29.1552 12.7959 29.4261 12.6334 29.6969C10.399 33.4615 9.00424 37.5375 8.81465 41.9115C8.36778 51.8782 11.8615 60.1386 20.298 65.7719C25.9042 69.5229 32.1334 70.2948 38.6469 68.2636C29.1272 67.3021 21.7063 62.8875 16.6959 54.7354C11.6855 46.6104 10.8865 37.8896 13.5813 28.7354Z" fill="black"/>
<path d="M54.3688 37.4157C56.2376 37.4834 56.8469 38.4584 56.2376 40.2188C54.7209 44.5521 50.4553 46.6646 46.1084 45.1479C43.5355 44.2406 41.5178 42.5886 40.123 40.2323C39.0532 38.4177 39.5272 37.375 41.6261 37.2396C43.8199 37.0907 52.324 37.3344 54.3688 37.4157ZM53.949 39.5282C50.2115 39.5282 46.5688 39.5282 42.8855 39.5282C46.623 43.875 52.148 43.9563 53.949 39.5282Z" fill="black"/>
<path d="M39.1343 29.7378C39.1478 31.8503 37.1166 33.7732 34.8958 33.7597C32.9593 33.7461 31.6051 31.9993 31.5916 30.1441C31.5645 28.2888 33.4603 26.4607 35.5458 26.4066C37.5499 26.3388 39.1343 27.8013 39.1343 29.7378ZM35.0718 28.3972C34.0697 28.5597 33.7583 29.5076 33.8395 30.2253C33.9478 31.268 34.7333 31.5253 35.2208 31.5388C35.6812 31.5524 36.5885 31.092 36.7781 30.1982C37.0218 29.2909 36.5072 28.0586 35.0718 28.3972Z" fill="#CD4631"/>
<path d="M65.0124 30.3063C64.9853 32.3511 63.5364 33.8542 61.5999 33.8407C59.5145 33.8272 58.0114 32.1345 58.0791 29.873C58.1333 27.9095 59.5958 26.3928 61.4103 26.4334C63.2926 26.4876 65.0395 28.3563 65.0124 30.3063ZM63.1437 30.2522C63.1437 29.2095 62.5885 28.5053 61.7218 28.5053C61.1937 28.5053 60.2999 28.9115 60.2999 30.022C60.2999 31.9584 61.7218 31.8501 61.7218 31.8501C62.4801 31.823 63.1437 31.5115 63.1437 30.2522Z" fill="#81ADC8"/>
</g>
<defs>
<filter id="filter0_d_301_562" x="-3.5" y="0" width="86" height="86" filterUnits="userSpaceOnUse" color-interpolation-filters="sRGB">
<feFlood flood-opacity="0" result="BackgroundImageFix"/>
<feColorMatrix in="SourceAlpha" type="matrix" values="0 0 0 0 0 0 0 0 0 0 0 0 0 0 0 0 0 0 127 0" result="hardAlpha"/>
<feOffset dy="4"/>
<feGaussianBlur stdDeviation="2"/>
<feComposite in2="hardAlpha" operator="out"/>
<feColorMatrix type="matrix" values="0 0 0 0 0 0 0 0 0 0 0 0 0 0 0 0 0 0 0.25 0"/>
<feBlend mode="normal" in2="BackgroundImageFix" result="effect1_dropShadow_301_562"/>
<feBlend mode="normal" in="SourceGraphic" in2="effect1_dropShadow_301_562" result="shape"/>
</filter>
</defs>
</svg>
