<svg width="79" height="79" viewBox="0 0 79 79" fill="none" xmlns="http://www.w3.org/2000/svg">
<g filter="url(#filter0_d_301_572)">
<path d="M54.1792 22.8174C53.8406 26.1622 53.5969 28.9517 53.2584 31.7278C53.0688 33.2445 52.4458 34.558 50.7396 34.9236C49.3177 35.2215 47.8417 34.4361 46.9886 32.6892C46.1625 31.0101 45.5667 29.209 44.9438 27.4351C43.1427 22.3434 40.3667 17.8205 36.9271 13.6903C35.8573 12.4038 34.8011 11.1174 33.5688 9.62779C33.2979 10.5351 33.0813 11.2663 32.8646 11.9976C30.5625 19.9465 29.7771 28.0445 30.1292 36.2913C30.2375 38.959 29.9261 41.6809 29.5469 44.3351C29.3031 46.0413 28.6667 47.7747 26.6084 48.1538C25.1323 48.4247 23.6698 47.2059 22.7761 44.9851C22.1802 43.4955 21.7875 41.9111 21.2458 40.3945C20.9479 39.5413 20.5146 38.7424 20.1219 37.8486C15.1521 43.8882 18.9438 63.808 25.5656 66.7195C25.5927 61.384 28.0438 56.9695 30.9417 52.7986C35.0448 46.8945 37.2792 40.3674 38.024 33.2715C38.0781 32.7434 38.1865 32.2017 38.2813 31.6872C38.7417 29.2767 39.7302 28.884 41.5313 30.6715C42.6958 31.8226 43.725 33.2445 44.4021 34.7205C47.7604 41.9517 49.1552 49.4538 46.8802 57.3351C46.6229 58.2017 46.0406 59.4205 46.474 60.0434C47.2323 60.9913 48.424 59.3663 48.6813 58.7028C49.3584 56.9559 49.7781 55.1278 50.3198 53.3267C50.6584 52.2028 50.8615 50.9705 51.4708 49.9955C51.9448 49.2372 52.974 48.3028 53.6781 48.3705C54.4094 48.4382 55.425 49.4809 55.6688 50.2934C57.4563 56.3465 56.6167 61.8851 51.0375 66.584C48.1667 69.008 44.6323 69.7934 41.0167 70.2674C36.9406 70.7955 32.9188 70.958 28.8292 70.0236C26.8792 69.5767 24.8479 69.2788 23.6698 68.8455C22.4917 68.4122 21.4896 67.532 21.0156 66.8007C14.9896 57.4976 14.0011 47.6934 18.2396 37.4153C19.1198 35.2892 20.8125 34.8424 22.3021 36.6028C23.399 37.9028 24.0219 39.6497 24.7125 41.2747C25.1865 42.4122 25.4438 43.6445 25.7688 44.8361C26.175 46.3257 26.7709 46.5559 27.1771 46.2986C27.6781 46.1497 27.9761 44.3486 27.9219 42.5476C27.8271 39.582 27.8813 36.6028 27.5698 33.6642C26.6625 25.0517 28.7615 16.9809 31.8219 9.07258C32.5802 7.0955 33.4469 6.85175 35.0719 8.233C41.7344 13.8799 46.5417 20.759 48.7219 29.3174C49.0604 30.6174 49.1688 32.0799 50.8209 33.109C50.9833 31.8497 51.1188 30.807 51.2677 29.7778C51.6469 27.232 51.8906 24.659 52.4594 22.1674C52.8115 20.6642 53.8542 20.3528 54.9511 21.4361C56.3865 22.858 57.7948 24.4288 58.7292 26.2028C62.2094 32.8382 63.4011 40.0424 63.374 47.4632C63.3469 53.2997 62.2636 58.9601 59.5823 64.1736C58.675 65.9476 57.1448 67.4101 55.8448 68.9674C55.2625 69.6715 53.9354 69.4413 54.5448 67.8705C54.599 67.7351 54.6667 67.5726 54.7615 67.4372C59.799 60.6799 60.3 52.7715 60.3677 44.809C60.4219 38.458 59.5011 32.2288 56.5354 26.4872C55.9125 25.309 55.1136 24.2528 54.1792 22.8174ZM53.4479 50.5913C52.649 53.2455 52.0261 55.4392 51.3083 57.6195C50.7396 59.3392 49.8729 60.8965 48.1667 61.7497C46.1896 62.7517 44.2667 61.6413 44.1584 59.4205C44.1177 58.5132 44.1583 57.5788 44.3344 56.6986C45.7156 49.6299 45.0656 42.7778 42.3031 36.1288C41.8292 34.9913 41.1386 33.9486 40.4479 32.7028C40.2042 33.109 40.0281 34.5851 40.0011 35.2215C39.825 40.0424 39.2834 44.809 36.7511 49.0611C35.2344 51.5934 33.5281 54.0174 31.8761 56.482C30.0479 59.2309 28.4229 62.0747 27.8271 65.3788C27.4209 67.6403 27.5969 67.7486 29.7636 68.3038C34.3542 69.4684 38.85 68.7236 43.3323 67.8299C48.4375 66.8142 51.6198 63.4559 53.5156 58.8247C54.5584 56.2924 54.2604 53.6653 53.4479 50.5913Z" fill="#CD4631"/>
</g>
<defs>
<filter id="filter0_d_301_572" x="-3.5" y="0" width="86" height="86" filterUnits="userSpaceOnUse" color-interpolation-filters="sRGB">
<feFlood flood-opacity="0" result="BackgroundImageFix"/>
<feColorMatrix in="SourceAlpha" type="matrix" values="0 0 0 0 0 0 0 0 0 0 0 0 0 0 0 0 0 0 127 0" result="hardAlpha"/>
<feOffset dy="4"/>
<feGaussianBlur stdDeviation="2"/>
<feComposite in2="hardAlpha" operator="out"/>
<feColorMatrix type="matrix" values="0 0 0 0 0 0 0 0 0 0 0 0 0 0 0 0 0 0 0.25 0"/>
<feBlend mode="normal" in2="BackgroundImageFix" result="effect1_dropShadow_301_572"/>
<feBlend mode="normal" in="SourceGraphic" in2="effect1_dropShadow_301_572" result="shape"/>
</filter>
</defs>
</svg>
