<svg width="79" height="78" viewBox="0 0 79 78" fill="none" xmlns="http://www.w3.org/2000/svg">
<path d="M29.6146 29.1961C28.2604 28.2211 27.2719 27.5034 26.2833 26.7992C22.3021 23.9419 18.2938 21.0982 14.3396 18.2003C13.3917 17.5096 12.4979 16.6565 11.8344 15.7086C11.4552 15.1398 11.3333 14.1242 11.5906 13.5284C11.7396 13.1763 12.9583 12.9867 13.5406 13.1898C14.9625 13.6638 16.3438 14.3138 17.6438 15.0586C21.6927 17.4013 25.7011 19.8253 29.8854 22.3169C30.2646 19.8253 30.5896 17.3471 31.05 14.8961C31.4021 13.0003 31.8896 11.1044 32.4177 9.24921C32.7563 8.044 33.474 7.0013 34.9229 7.20442C36.4261 7.40755 36.9136 8.59921 36.8865 9.93984C36.8323 13.9346 36.6969 17.9159 36.6156 21.9107C36.5886 22.8586 36.6156 23.8065 36.6156 24.7544C36.7646 24.8898 38.0375 23.7523 38.6333 23.17C43.725 18.1867 48.8167 13.2305 53.9625 8.3013C54.6802 7.61067 55.5875 7.02838 56.5083 6.64921C56.9958 6.44609 57.9167 6.59505 58.2417 6.94713C58.5667 7.29921 58.6344 8.22005 58.4042 8.69401C57.9708 9.6013 57.3208 10.4273 56.6302 11.1721C52.0938 16.1555 47.5302 21.1117 42.9802 26.0815C42.4792 26.6232 41.9781 27.1919 41.2333 28.018C44.6458 27.7742 47.7198 27.5034 50.7938 27.3409C56.9823 27.0294 63.1844 26.7721 69.3729 26.5013C69.7521 26.4878 70.1583 26.4878 70.4833 26.5555C72.6094 27.0023 72.4198 29.1284 70.8219 29.3992C68.8719 29.7378 66.9083 30.1575 64.9313 30.3607C57.849 31.0648 50.7667 31.6878 43.6844 32.3513C43.5354 32.3648 43.4 32.419 42.9531 32.5409C44.9031 34.0711 46.7042 35.4794 48.5052 36.8742C51.9042 39.5284 55.3438 42.1419 58.6886 44.8503C59.5823 45.5815 60.3677 46.543 60.9365 47.545C61.5458 48.6013 60.9094 49.5086 59.7448 49.2242C58.3229 48.8586 56.8604 48.2763 55.6552 47.4503C49.7781 43.4419 43.9823 39.3117 38.1594 35.2221C37.5094 34.7617 36.8594 34.3013 35.9115 33.6107C35.7083 36.6846 35.5458 39.4471 35.3292 42.2096C34.6792 50.4294 34.0292 58.6492 33.3521 66.869C33.2708 67.7763 33.0948 68.6971 32.824 69.5638C32.4583 70.7555 31.6458 71.5409 30.3323 71.4461C29.1 71.3513 28.3823 70.5253 28.1656 69.3607C27.9625 68.2503 27.8542 67.1128 27.8677 65.9888C27.949 58.6492 28.0708 51.3232 28.1792 43.9836C28.1927 43.4419 28.1792 42.9138 28.1792 41.9794C27.5563 42.5753 27.1229 42.968 26.7031 43.3878C22.0177 48.0732 17.3323 52.7721 12.6333 57.4576C12.1052 57.9857 11.5094 58.5138 10.8323 58.8117C10.3719 59.0148 9.55939 59.0013 9.2073 58.7169C8.85522 58.4326 8.77397 57.6336 8.77397 57.1596C8.78751 55.6701 9.58647 55.0065 10.2906 54.1534C14.4344 49.1294 18.6458 44.1461 22.8844 39.1898C24.4146 37.4023 26.0802 35.7367 28.0438 33.6513C24.374 34.0711 21.1917 34.4773 18.0094 34.7753C14.949 35.0596 11.8886 35.2357 8.81459 35.4523C8.48959 35.4794 8.15105 35.4253 7.85313 35.3846C6.29584 35.195 7.17605 33.543 7.62293 33.4346C10.6969 32.6763 13.7979 31.945 16.9125 31.3763C20.6094 30.7398 28.775 29.4805 29.6146 29.1961Z" fill="black"/>
</svg>
