<svg width="79" height="78" viewBox="0 0 79 78" fill="none" xmlns="http://www.w3.org/2000/svg">
<path d="M70.1584 24.7411C70.5782 25.2015 70.6323 25.8786 70.3073 26.4202C70.0094 26.9213 69.7521 27.3546 69.4542 27.7609C66.3667 32.04 64.674 34.2744 61.6271 38.5807C60.8553 39.664 58.9865 42.9817 58.2688 44.1192C58.2553 44.1327 58.2553 44.1463 58.2417 44.1598C57.5917 45.1348 55.9938 45.0671 55.4792 43.9973C55.4792 43.9973 55.4792 43.9838 55.4657 43.9838C54.7073 42.3182 54.098 40.5984 53.3938 38.9057C51.4573 34.2338 48.7626 30.1848 44.2803 27.5307C42.6553 26.5692 42.6282 25.865 43.8875 24.4702C44.3615 23.9557 44.8355 23.4275 45.35 22.9671C50.3198 18.539 53.7459 13.0682 56.3053 6.97441C56.4678 6.59524 56.7928 6.29733 57.1448 5.99941C57.6053 5.62024 58.2688 5.67441 58.675 6.10774C59.0136 6.45983 59.325 6.83899 59.5146 7.25879C59.9344 8.23379 60.0428 9.33066 60.3 10.3734C61.6813 16.0473 64.7553 20.5702 69.4271 24.0505C69.6844 24.24 69.9146 24.4838 70.1584 24.7411ZM57.7136 11.1452C56.1021 13.8265 54.748 16.589 52.9063 18.9994C51.024 21.4505 48.6678 23.5359 46.5146 25.7973C51.9855 29.0744 55.1542 34.2609 57.0636 40.6255C59.8667 34.8296 63.7396 30.2255 67.9917 25.9192C61.275 20.8005 59.6771 18.4848 57.7136 11.1452Z" fill="black"/>
<path d="M19.0927 71.4733C17.8605 67.9796 16.7907 64.4181 15.4365 60.9785C14.1094 57.6473 12.1323 54.6817 9.28858 52.3931C8.24587 51.5535 8.27295 50.7952 9.12608 49.8473C13.9198 44.6337 17.6032 38.7296 20.2438 32.1619C20.5282 31.4577 21.2865 30.3337 21.8146 30.3337C23.25 29.9952 23.7646 32.7983 23.8188 33.0556C25.024 39.664 29.1136 44.4712 33.7042 48.9671C35.1938 50.4296 35.3157 50.8765 33.8532 52.2848C28.3417 57.566 24.6855 64.066 21.5438 70.9046C20.5552 73.2879 19.2417 71.8931 19.0927 71.4733ZM10.9407 50.7817C13.8657 52.6369 15.8021 55.115 17.2105 57.9181C18.5782 60.6671 19.5802 63.5785 20.7177 66.3681C23.3448 60.491 26.8927 55.0608 32.2823 50.9306C27.0688 46.8275 22.9521 42.1421 21.6927 35.4254C19.4313 41.465 15.8427 46.489 10.9407 50.7817Z" fill="#81ADC8"/>
<path d="M56.102 56.9026C53.1093 60.9245 51.2812 65.5152 49.602 70.187C49.4937 70.4849 49.1416 72.1777 47.8551 72.1641C47.4895 72.1641 46.8801 71.5818 46.6499 71.1214C45.6343 69.0495 44.9978 66.7339 43.7114 64.8652C42.1947 62.6443 40.1093 60.8162 38.3489 58.7714C38.0916 58.4735 37.9968 57.7964 38.1593 57.4308C38.4708 56.7537 39.026 56.212 39.4593 55.5891C41.6666 52.3391 43.8333 49.062 46.1083 45.8662C46.5822 45.2026 47.5166 44.4037 48.0718 44.4037C49.453 44.3901 49.7239 45.4735 49.9676 46.2454C51.078 49.7933 52.9874 52.7589 55.7635 55.2099C56.752 56.1308 56.2239 56.7401 56.102 56.9026ZM40.8947 57.837C44.1176 60.1256 46.3114 63.4297 47.6385 67.1266C49.602 63.5245 51.6062 59.8547 53.6645 56.0631C50.902 54.1537 48.9791 50.5922 48.0989 47.9651C45.6885 51.2693 43.3051 54.5329 40.8947 57.837Z" fill="#CD4631"/>
</svg>
