<svg width="79" height="78" viewBox="0 0 79 78" fill="none" xmlns="http://www.w3.org/2000/svg">
<path d="M20.6094 35.9263C18.8625 37.5107 17.1698 38.8919 15.5448 40.5982C13.1615 43.0898 10.9407 45.7305 8.65213 48.3034C8.0563 48.9669 7.58234 49.9419 6.44484 49.4274C5.70005 49.0888 5.70005 48.2357 6.41776 46.8274C6.83755 46.0149 7.31151 45.2294 7.86671 44.4982C11.0084 40.3409 14.7188 36.7523 18.998 33.7732C19.7292 33.2721 20.5282 32.8117 21.3678 32.5273C22.9657 31.9992 24.198 32.9201 24.049 34.5992C23.9542 35.6826 23.575 36.7659 23.25 37.8221C22.6271 39.8263 21.9094 41.7898 21.3136 43.8076C21.1511 44.3628 20.948 45.3242 21.2865 45.744C21.8688 46.3669 23.6021 44.5794 24.374 43.7534C26.7438 41.2482 29.0323 38.6617 31.375 36.1294C33.7178 33.5836 36.3042 31.2951 39.324 29.5753C40.2042 29.0742 41.1521 28.6409 42.1271 28.3836C43.698 27.9638 44.9438 29.0065 44.8355 30.6451C44.7813 31.4305 44.5511 32.243 44.2125 32.9607C43.3459 34.7617 42.3573 36.4951 41.45 38.269C40.5021 40.1242 39.5136 41.9794 39.1615 44.4982C39.825 43.9024 40.2584 43.5638 40.624 43.1576C43.0073 40.5846 45.3365 37.9711 47.7469 35.4253C49.9407 33.1096 52.2834 30.943 55.1136 29.4263C56.1834 28.8576 57.3886 28.4107 58.5803 28.2482C60.2323 28.0315 61.3698 29.2909 61.0448 30.9294C60.8011 32.1346 60.2865 33.2992 59.7719 34.4096C58.7834 36.5086 57.7001 38.5534 56.6844 40.6253C56.4542 41.0857 55.7501 42.169 56.3865 42.2773C57.0636 41.5596 57.7407 40.8284 58.4313 40.1242C60.2594 38.2148 62.0469 36.2784 63.9292 34.4232C65.6219 32.744 67.5042 31.2951 69.9146 30.7534C71.9459 30.293 73.3813 31.5523 73.0563 33.6107C72.8938 34.5992 72.5688 35.6148 72.1084 36.5086C70.1042 40.4492 68.0323 44.3492 65.974 48.2628C65.7438 48.6826 65.4865 49.1294 65.1209 49.4274C64.7823 49.6982 64.2136 50.0096 63.8886 49.8878C63.5636 49.7659 62.9678 49.3326 63.0355 48.4794C63.1032 47.694 63.3334 47.1117 63.6448 46.4076C65.0803 43.1576 66.5969 39.9482 68.0865 36.7253C68.4928 35.8586 68.9261 35.0055 69.3459 34.1388C69.4948 33.8815 69.4542 33.8409 69.373 33.7461C68.9803 33.543 67.8969 34.369 67.4501 34.8023C64.8907 37.2669 62.3719 39.7586 59.8667 42.2638C58.8782 43.2523 57.9709 44.3357 56.9823 45.3242C56.1698 46.1367 55.1678 46.5971 54.0438 46.0555C52.9198 45.5138 52.6084 44.3763 52.798 43.293C53.0688 41.7086 53.4073 40.0971 54.0573 38.6482C55.0323 36.4409 56.3053 34.3555 57.4428 32.2159C57.6323 31.8503 57.7948 31.4576 58.1063 30.7534C57.4021 31.0513 56.9688 31.1732 56.5761 31.3898C54.0032 32.8253 51.823 34.7617 49.8594 36.9148C47.5032 39.5013 45.2959 42.2232 42.9667 44.8503C42.0459 45.893 41.098 46.9628 40.0011 47.8023C37.875 49.4544 35.749 48.5742 35.4782 45.9065C35.3563 44.6471 35.5459 43.3201 35.8438 42.0878C36.5886 38.9596 38.2813 36.2378 39.8792 33.4888C40.2178 32.9065 40.5563 32.3242 40.773 31.6607C38.1594 32.6221 36.0469 34.2742 34.1375 36.143C31.1719 39.0409 28.3688 42.1148 25.4709 45.0669C24.7261 45.8253 23.9 46.5565 22.9928 47.1117C21.449 48.0461 19.7698 47.3284 19.3907 45.568C19.1063 44.2815 19.0928 42.8596 19.2959 41.5596C19.5803 39.6503 20.8261 36.143 20.7719 35.9263C20.7719 35.7232 20.6094 35.9263 20.6094 35.9263Z" fill="#81ADC8"/>
</svg>
