<svg width="332" height="332" viewBox="0 0 332 332" fill="none" xmlns="http://www.w3.org/2000/svg">
<g clip-path="url(#clip0_301_11203)">
<path d="M143.568 305.081C117.09 305.081 91.1291 297.759 68.5537 283.925C45.9783 270.091 27.6683 250.283 15.6479 226.692C3.62759 203.101 -1.6348 176.645 0.44256 150.249C2.51992 123.854 11.8561 98.547 27.4189 77.1266C42.9818 55.7062 64.165 39.0067 88.6266 28.8744C113.088 18.742 139.875 15.5716 166.026 19.7135C192.178 23.8554 216.674 35.1484 236.807 52.3439C256.941 69.5393 271.927 91.9675 280.108 117.149L266.454 121.585C259.091 98.9221 245.603 78.7368 227.483 63.2608C209.363 47.7849 187.317 37.6212 163.781 33.8935C140.245 30.1658 116.136 33.0192 94.1207 42.1383C72.1053 51.2574 53.0404 66.2869 39.0338 85.5653C25.0273 104.844 16.6247 127.62 14.7551 151.376C12.8854 175.132 17.6216 198.942 28.4399 220.174C39.2582 241.406 55.7372 259.233 76.0551 271.684C96.373 284.135 119.738 290.724 143.568 290.724L143.568 305.081Z" fill="black"/>
<path d="M181.272 146.114C185.166 146.114 188.537 146.763 191.385 148.061C194.274 149.359 196.493 151.201 198.042 153.588C199.592 155.975 200.366 158.801 200.366 162.067C200.366 165.292 199.592 168.118 198.042 170.547C196.493 172.934 194.274 174.776 191.385 176.074C188.537 177.33 185.166 177.959 181.272 177.959H172.416V190.081H162.24V146.114H181.272ZM180.707 169.668C183.763 169.668 186.087 169.019 187.679 167.72C189.27 166.38 190.066 164.496 190.066 162.067C190.066 159.597 189.27 157.713 187.679 156.414C186.087 155.075 183.763 154.405 180.707 154.405H172.416V169.668H180.707ZM227.025 190.835C222.461 190.835 218.336 189.851 214.651 187.883C211.008 185.915 208.14 183.214 206.046 179.78C203.994 176.305 202.968 172.41 202.968 168.097C202.968 163.784 203.994 159.911 206.046 156.477C208.14 153.002 211.008 150.28 214.651 148.312C218.336 146.344 222.461 145.36 227.025 145.36C231.589 145.36 235.693 146.344 239.336 148.312C242.979 150.28 245.847 153.002 247.941 156.477C250.034 159.911 251.081 163.784 251.081 168.097C251.081 172.41 250.034 176.305 247.941 179.78C245.847 183.214 242.979 185.915 239.336 187.883C235.693 189.851 231.589 190.835 227.025 190.835ZM227.025 182.167C229.621 182.167 231.966 181.581 234.06 180.408C236.153 179.194 237.786 177.519 238.959 175.383C240.173 173.248 240.78 170.819 240.78 168.097C240.78 165.375 240.173 162.947 238.959 160.811C237.786 158.676 236.153 157.022 234.06 155.849C231.966 154.635 229.621 154.028 227.025 154.028C224.429 154.028 222.084 154.635 219.99 155.849C217.896 157.022 216.242 158.676 215.028 160.811C213.855 162.947 213.269 165.375 213.269 168.097C213.269 170.819 213.855 173.248 215.028 175.383C216.242 177.519 217.896 179.194 219.99 180.408C222.084 181.581 224.429 182.167 227.025 182.167ZM256.216 146.114H276.19C280.964 146.114 285.172 147.035 288.815 148.877C292.5 150.678 295.347 153.232 297.357 156.54C299.409 159.848 300.435 163.701 300.435 168.097C300.435 172.494 299.409 176.346 297.357 179.654C295.347 182.963 292.5 185.538 288.815 187.38C285.172 189.181 280.964 190.081 276.19 190.081H256.216V146.114ZM275.687 181.727C280.084 181.727 283.581 180.513 286.177 178.084C288.815 175.614 290.134 172.285 290.134 168.097C290.134 163.91 288.815 160.602 286.177 158.173C283.581 155.703 280.084 154.467 275.687 154.467H266.391V181.727H275.687Z" fill="#CD4631"/>
<path d="M183.533 247.835C178.969 247.835 174.844 246.851 171.159 244.883C167.516 242.915 164.648 240.214 162.554 236.78C160.503 233.305 159.477 229.41 159.477 225.097C159.477 220.784 160.503 216.911 162.554 213.477C164.648 210.002 167.516 207.28 171.159 205.312C174.844 203.344 178.969 202.36 183.533 202.36C188.097 202.36 192.201 203.344 195.844 205.312C199.487 207.28 202.355 210.002 204.449 213.477C206.543 216.911 207.59 220.784 207.59 225.097C207.59 229.41 206.543 233.305 204.449 236.78C202.355 240.214 199.487 242.915 195.844 244.883C192.201 246.851 188.097 247.835 183.533 247.835ZM183.533 239.167C186.129 239.167 188.474 238.581 190.568 237.408C192.662 236.194 194.295 234.519 195.467 232.383C196.682 230.248 197.289 227.819 197.289 225.097C197.289 222.375 196.682 219.947 195.467 217.811C194.295 215.676 192.662 214.022 190.568 212.849C188.474 211.635 186.129 211.028 183.533 211.028C180.937 211.028 178.592 211.635 176.498 212.849C174.405 214.022 172.751 215.676 171.536 217.811C170.364 219.947 169.778 222.375 169.778 225.097C169.778 227.819 170.364 230.248 171.536 232.383C172.751 234.519 174.405 236.194 176.498 237.408C178.592 238.581 180.937 239.167 183.533 239.167ZM233.201 211.028C229.683 211.028 227.024 211.802 225.224 213.352C223.423 214.859 222.523 217.141 222.523 220.198V222.899H240.613V231.064H222.523V247.081H212.348V220.261C212.348 214.608 214.106 210.211 217.624 207.071C221.183 203.93 226.145 202.36 232.51 202.36C235.022 202.36 237.388 202.632 239.608 203.176C241.827 203.679 243.753 204.433 245.386 205.438L242.246 213.477C239.733 211.844 236.718 211.028 233.201 211.028ZM183.282 304.835C178.801 304.835 174.74 303.872 171.097 301.946C167.495 299.977 164.648 297.277 162.554 293.843C160.503 290.367 159.477 286.452 159.477 282.097C159.477 277.742 160.503 273.848 162.554 270.414C164.648 266.939 167.495 264.238 171.097 262.312C174.74 260.344 178.822 259.36 183.345 259.36C187.155 259.36 190.589 260.03 193.646 261.37C196.744 262.71 199.341 264.636 201.434 267.148L194.902 273.178C191.929 269.745 188.244 268.028 183.847 268.028C181.125 268.028 178.697 268.635 176.561 269.849C174.426 271.022 172.751 272.676 171.536 274.811C170.364 276.947 169.778 279.375 169.778 282.097C169.778 284.819 170.364 287.248 171.536 289.383C172.751 291.519 174.426 293.194 176.561 294.408C178.697 295.581 181.125 296.167 183.847 296.167C188.244 296.167 191.929 294.429 194.902 290.954L201.434 296.983C199.341 299.538 196.744 301.485 193.646 302.825C190.547 304.165 187.092 304.835 183.282 304.835ZM225.579 259.36C229.64 259.36 233.179 260.155 236.194 261.747C239.209 263.338 241.554 265.683 243.228 268.781C244.903 271.88 245.741 275.628 245.741 280.025V304.081H235.566V293.529H215.466V304.081H205.416V280.025C205.416 275.628 206.254 271.88 207.929 268.781C209.604 265.683 211.949 263.338 214.964 261.747C217.979 260.155 221.517 259.36 225.579 259.36ZM235.566 285.363V279.082C235.566 275.439 234.665 272.697 232.865 270.854C231.064 268.97 228.615 268.028 225.516 268.028C222.375 268.028 219.905 268.97 218.104 270.854C216.345 272.697 215.466 275.439 215.466 279.082V285.363H235.566ZM267.718 304.835C264.243 304.835 260.872 304.374 257.606 303.453C254.381 302.49 251.785 301.255 249.817 299.747L253.272 292.084C255.156 293.466 257.396 294.576 259.993 295.413C262.589 296.251 265.185 296.669 267.781 296.669C270.67 296.669 272.806 296.251 274.188 295.413C275.57 294.534 276.261 293.382 276.261 291.959C276.261 290.912 275.842 290.053 275.004 289.383C274.209 288.671 273.162 288.106 271.864 287.687C270.608 287.269 268.891 286.808 266.713 286.306C263.363 285.51 260.621 284.714 258.485 283.919C256.35 283.123 254.507 281.846 252.958 280.087C251.45 278.329 250.697 275.984 250.697 273.053C250.697 270.498 251.388 268.195 252.769 266.143C254.151 264.05 256.224 262.396 258.988 261.181C261.793 259.967 265.206 259.36 269.226 259.36C272.031 259.36 274.774 259.695 277.454 260.365C280.134 261.035 282.479 261.998 284.489 263.254L281.348 270.98C277.286 268.677 273.225 267.525 269.163 267.525C266.316 267.525 264.201 267.986 262.819 268.907C261.479 269.828 260.809 271.043 260.809 272.55C260.809 274.058 261.584 275.188 263.133 275.942C264.724 276.654 267.132 277.366 270.356 278.077C273.706 278.873 276.449 279.669 278.585 280.464C280.72 281.26 282.542 282.516 284.049 284.233C285.598 285.95 286.373 288.274 286.373 291.205C286.373 293.717 285.661 296.02 284.238 298.114C282.856 300.166 280.762 301.799 277.956 303.013C275.151 304.228 271.738 304.835 267.718 304.835ZM322.418 272.424C318.649 270.247 314.608 268.844 310.295 268.216V304.081H300.12V268.216C295.807 268.844 291.745 270.247 287.935 272.424L284.48 264.824C287.495 263.024 290.761 261.663 294.278 260.742C297.796 259.82 301.418 259.36 305.145 259.36C308.913 259.36 312.556 259.82 316.074 260.742C319.633 261.663 322.899 263.024 325.872 264.824L322.418 272.424Z" fill="black"/>
</g>
<defs>
<clipPath id="clip0_301_11203">
<rect width="332" height="332" fill="white"/>
</clipPath>
</defs>
</svg>
