<svg width="120" height="120" viewBox="0 0 120 120" fill="none" xmlns="http://www.w3.org/2000/svg">
<path d="M58.2709 59.1456C58.5209 58.1456 58.6668 57.3331 58.9376 56.5414C61.6459 48.5414 66.0001 41.4164 70.9584 34.6456C71.5418 33.8539 72.2709 33.1039 73.0834 32.6039C73.5209 32.3331 74.3959 32.3747 74.8959 32.6456C75.2709 32.8539 75.5418 33.6664 75.4584 34.1247C75.3126 34.9997 75.0001 35.8956 74.5626 36.6872C71.6876 41.9164 68.7918 47.1247 65.8543 52.3122C64.7501 54.2497 63.5834 56.1664 62.4376 58.0831C62.0626 58.7289 61.6459 59.3539 61.2084 59.9372C60.7293 60.6039 60.0001 60.9997 59.2709 60.5622C58.7918 60.2706 58.2709 60.0622 58.2709 59.1456Z" fill="#CD4631"/>
<path d="M87.7709 90.1672C86.7709 90.0005 85.6042 89.8755 84.4792 89.6255C80.0417 88.6255 75.6042 87.6255 71.1876 86.5838C70.2292 86.3547 69.2917 85.9588 68.4376 85.5005C67.2917 84.8963 66.8959 84.0422 67.0834 83.1047C67.2709 82.1672 68.0209 81.5838 69.3334 81.563C70.2292 81.5422 71.1876 81.563 72.0417 81.7713C77.6459 83.188 83.2501 84.6463 88.8334 86.1255C89.4584 86.2922 90.1042 86.5838 90.5834 87.0005C91.7917 88.0213 91.4167 89.6255 89.8751 90.0213C89.2709 90.1672 88.5834 90.1047 87.7709 90.1672Z" fill="#CD4631"/>
<path d="M29.2292 34.3124C29.3125 33.3332 29.5209 32.354 29.7709 31.3957C30 30.5415 30.5834 29.9374 31.5209 29.854C32.3125 29.7915 33.1667 30.5832 33.2917 31.6249C33.4584 33.0207 33.6042 34.4374 33.5417 35.8332C33.3542 40.0415 33.0834 44.2707 32.7917 48.479C32.6875 49.8749 32.5 51.2707 32.2709 52.6665C32.1875 53.1457 32.0209 53.6457 31.75 54.0207C31.0209 55.0832 29.6875 54.9999 29.1667 53.854C28.875 53.2082 28.75 52.4165 28.75 51.7082C28.6459 49.3749 28.9584 37.7707 29.2292 34.3124Z" fill="#CD4631"/>
</svg>
