<svg width="74" height="74" viewBox="0 0 74 74" fill="none" xmlns="http://www.w3.org/2000/svg">
<path d="M63.3754 43.9371C60.5234 43.2048 55.7185 42.4211 53.9456 41.2135C53.2133 40.7125 53.3032 40.16 53.4317 39.7746C53.5602 39.4149 54.2924 39.0423 54.7421 39.068C55.757 39.1066 56.772 39.325 57.7484 39.5948C59.9195 40.1857 62.0779 40.8024 64.2105 41.509C65.3411 41.8816 65.7008 42.7423 65.0456 43.2948C64.6602 43.6159 64.3004 43.9371 63.3754 43.9371Z" fill="#CD4631"/>
<path d="M18.4103 63.7861C18.5387 63.1052 18.7957 62.7455 19.1682 62.2187C20.62 60.1889 22.136 58.1975 23.6262 56.2062C23.7162 56.0906 23.8189 55.9621 23.9346 55.8722C24.4485 55.4354 25.0266 54.9215 25.6946 55.3968C26.3627 55.885 26.1314 56.6045 25.7717 57.1826C24.2814 59.6107 22.7655 62.026 21.2238 64.4284C20.9926 64.801 20.5943 65.1222 20.196 65.3149C19.2068 65.7902 18.3332 65.135 18.4103 63.7861Z" fill="#CD4631"/>
<path d="M50.5154 63.337C50.5154 63.9152 50.0657 64.3263 49.7317 64.3905C49.2821 64.4804 48.8966 64.4034 48.2543 63.9666C48.0359 63.8252 47.9074 63.4784 47.7789 63.2086C46.8411 61.1787 45.8904 59.1617 44.9782 57.119C44.747 56.6179 44.5157 56.0398 44.5543 55.5131C44.5928 55.0377 44.8883 54.3568 45.2737 54.1898C45.6463 54.0228 46.1473 53.9714 46.7383 54.5495C46.9567 54.7551 47.1623 55.102 47.3036 55.4231C48.2286 57.5686 49.1536 59.7141 50.0529 61.8725C50.2199 62.2836 50.3227 62.7332 50.5154 63.337Z" fill="#CD4631"/>
<path d="M9.73827 45.6334C9.1473 45.4664 8.76188 45.1837 8.67195 44.7983C8.55633 44.3101 8.80043 43.6549 9.08306 43.1924C9.30147 42.8455 9.80251 42.6271 10.2265 42.4858C12.3463 41.7792 14.4789 41.0855 16.6244 40.4303C16.9841 40.3146 17.4466 40.2761 17.7935 40.3917C18.3588 40.5844 18.6029 41.0341 18.1404 41.5737C17.8834 41.882 17.5879 42.2032 17.241 42.3702C15.2369 43.3723 13.2199 44.3358 11.19 45.2865C10.8174 45.4535 10.3164 45.8132 9.73827 45.6334Z" fill="#CD4631"/>
<path d="M53.2646 23.5875C52.9819 23.4719 52.7378 23.0094 52.725 22.7011C52.7122 22.2771 52.8406 21.7632 53.0976 21.4164C54.2924 19.7719 55.5514 18.1532 56.7976 16.5473C56.9774 16.3032 57.2215 16.1105 57.4656 15.9178C58.0181 15.4938 58.7375 15.1212 59.2257 15.7636C59.5083 16.1362 59.5983 17.0868 59.3285 17.408C57.684 19.4122 55.9111 21.3264 54.151 23.2407C54.0097 23.4077 53.7271 23.6775 53.2646 23.5875Z" fill="#CD4631"/>
<path d="M12.0763 20.7996C12.7958 21.018 13.3482 21.1464 13.875 21.3391C15.4038 21.8916 16.9326 22.4569 18.4486 23.035C18.8725 23.202 19.3222 23.369 19.669 23.6388C19.9131 23.8315 20.1829 24.3197 20.093 24.4996C19.9388 24.795 19.7076 25.1676 19.1809 25.1291C18.9624 25.1162 18.6798 25.1034 18.4357 25.0391C16.7142 24.5766 14.9927 24.1398 13.284 23.6259C12.7059 23.4589 12.102 23.2148 11.6395 22.8423C11.3055 22.5725 10.9972 21.9687 11.0871 21.6089C11.1642 21.2749 11.4468 20.7996 12.0763 20.7996Z" fill="#CD4631"/>
<path d="M35.5868 15.4808C35.574 15.6349 35.5611 15.7891 35.5097 15.9304C35.2913 16.5599 35.15 17.2665 34.2635 17.2023C33.3257 17.1381 33.2872 16.3672 33.3 15.7377C33.3385 14.2218 33.4799 12.7058 33.5955 11.177C33.6469 10.6245 33.7111 10.0593 33.8653 9.53252C34.0195 8.99293 34.2379 8.4405 34.983 8.53043C35.6767 8.62036 35.908 9.08286 35.9208 9.69953C35.9208 10.3676 35.7153 14.2218 35.5868 15.4808Z" fill="#CD4631"/>
</svg>
